<svg xmlns="http://www.w3.org/2000/svg" width="9.639" height="308.985"><path data-name="Path 89" d="M8.746 8.67a3.129 3.129 0 01-1.012 2.576 3.891 3.891 0 01-2.541.824 3.664 3.664 0 01-2.533-.785 3.782 3.782 0 01-1.146-2.062 15.247 15.247 0 01-.282-3.188 15.247 15.247 0 01.282-3.188A3.782 3.782 0 012.66.785 3.664 3.664 0 015.193.003a3.891 3.891 0 012.541.825A3.129 3.129 0 018.746 3.4v.629H6.434V3.4q0-1-1.241-1a1.261 1.261 0 00-1.046.434 2.43 2.43 0 00-.459 1.19 14.565 14.565 0 00-.11 2.011 14.565 14.565 0 00.111 2.014 2.43 2.43 0 00.459 1.19 1.261 1.261 0 001.046.434 1.42 1.42 0 00.9-.255.9.9 0 00.32-.748v-.629h2.332zM1.014 39.035a15.347 15.347 0 01.28-3.2 3.762 3.762 0 011.139-2.057 3.657 3.657 0 012.524-.774 3.753 3.753 0 012.558.774 3.764 3.764 0 011.165 2.066 14.934 14.934 0 01.289 3.2 14.934 14.934 0 01-.289 3.2 3.764 3.764 0 01-1.166 2.053 3.753 3.753 0 01-2.558.773 3.657 3.657 0 01-2.524-.773 3.762 3.762 0 01-1.139-2.057 15.347 15.347 0 01-.279-3.205zm2.346 0a14.759 14.759 0 00.111 2.023 2.438 2.438 0 00.451 1.19 1.248 1.248 0 001.037.425 1.307 1.307 0 001.071-.434 2.38 2.38 0 00.468-1.19 14.565 14.565 0 00.106-2.014 14.565 14.565 0 00-.111-2.014 2.38 2.38 0 00-.468-1.19 1.307 1.307 0 00-1.071-.434 1.237 1.237 0 00-1.037.434 2.484 2.484 0 00-.451 1.19 14.565 14.565 0 00-.109 2.014zm-1.065 27.05l2.519 7.582 2.53-7.582h2.3v11.9H7.292v-4.743l-1.546 4.743H3.858l-1.5-4.624v4.624H0v-11.9zm0 33l2.519 7.582 2.53-7.582h2.3v11.9H7.292v-4.743l-1.546 4.743H3.858l-1.5-4.624v4.624H0v-11.9zm3.834 33v11.9H3.765v-11.9zm2.065 33v2.4H6v9.5H3.638v-9.5H1.444v-2.4zm-5.9 33l2.52 7.582 2.53-7.582h2.3v11.9H7.292v-4.743l-1.546 4.743H3.858l-1.5-4.624v4.624H0v-11.9zm5.627 33v2.4H4.314v2.482h3.012v2.4H4.314v2.218h3.709v2.4H1.954v-11.9zm-4.7 33l3.111 6.29v-6.29h2.346v11.9H6.604l-3.128-6.273v6.273H1.13v-11.9zm4.973 33v2.4H6v9.5H3.638v-9.5H1.444v-2.4z"/></svg>