<svg data-name="Group 21" xmlns="http://www.w3.org/2000/svg" width="28" height="313"><path data-name="Path 84" d="M17.332 21.685a3.129 3.129 0 01-1.012 2.576 3.891 3.891 0 01-2.541.824 3.664 3.664 0 01-2.533-.785 3.782 3.782 0 01-1.146-2.062 15.247 15.247 0 01-.282-3.188 15.247 15.247 0 01.282-3.188 3.782 3.782 0 011.146-2.062 3.664 3.664 0 012.533-.782 3.891 3.891 0 012.541.825 3.129 3.129 0 011.012 2.572v.629H15.02v-.629q0-1-1.241-1a1.261 1.261 0 00-1.046.434 2.43 2.43 0 00-.459 1.19 14.565 14.565 0 00-.11 2.011 14.565 14.565 0 00.111 2.014 2.43 2.43 0 00.459 1.19 1.261 1.261 0 001.046.434 1.42 1.42 0 00.9-.255.9.9 0 00.32-.748v-.629h2.332zM9.6 49.05a15.347 15.347 0 01.28-3.2 3.762 3.762 0 011.139-2.057 3.657 3.657 0 012.524-.774 3.753 3.753 0 012.558.774 3.764 3.764 0 011.165 2.066 14.934 14.934 0 01.289 3.2 14.934 14.934 0 01-.289 3.2 3.764 3.764 0 01-1.166 2.053 3.753 3.753 0 01-2.558.773 3.657 3.657 0 01-2.524-.773 3.762 3.762 0 01-1.139-2.057A15.347 15.347 0 019.6 49.05zm2.346 0a14.759 14.759 0 00.111 2.023 2.438 2.438 0 00.451 1.19 1.248 1.248 0 001.037.425 1.307 1.307 0 001.071-.434 2.38 2.38 0 00.468-1.19 14.565 14.565 0 00.106-2.014 14.565 14.565 0 00-.111-2.014 2.38 2.38 0 00-.468-1.19 1.307 1.307 0 00-1.071-.434 1.237 1.237 0 00-1.037.434 2.484 2.484 0 00-.451 1.19 14.565 14.565 0 00-.109 2.014zM10.881 73.1l2.519 7.582 2.53-7.582h2.3V85h-2.352v-4.743L14.332 85h-1.888l-1.5-4.624V85H8.586V73.1zm0 30l2.519 7.582 2.53-7.582h2.3V115h-2.352v-4.743L14.332 115h-1.888l-1.5-4.624V115H8.586v-11.9zm3.834 30V145h-2.364v-11.9zm2.065 30v2.4h-2.194v9.5h-2.362v-9.5H10.03v-2.4zm-5.9 30l2.52 7.582 2.53-7.582h2.3V205h-2.352v-4.743L14.332 205h-1.888l-1.5-4.624V205H8.586v-11.9zm5.627 30v2.4H12.9v2.482h3.012v2.4H12.9v2.218h3.709v2.4H10.54v-11.9zm-4.7 30l3.111 6.29v-6.29h2.346V265H15.19l-3.128-6.273V265H9.716v-11.9zm4.973 30v2.4h-2.194v9.5h-2.362v-9.5H10.03v-2.4z" fill="#d89700"/><g data-name="Path 85" fill="none"><path d="M0 0h28v313H0z"/><path d="M2 2v309h24V2H2M0 0h28v313H0V0z" fill="#d89722"/></g></svg>