<svg xmlns="http://www.w3.org/2000/svg" width="58" height="90.07"><g data-name="Group 33"><path data-name="Line 10" fill="none" stroke="#000" stroke-width="2" d="M0 24.648h58"/><path data-name="Path 96" d="M24.9 56.528V43.384H5.56L.6 50.204h15.376v13.144L.414 88.148h22.754l4.96-6.82H9.342zm24.928 24.738V41.4l-17.36 5.766 8.432 2.79v32.426l8.928 7.688 5.518-8.8z"/><path data-name="Path 95" d="M16.192 1.633H12v1.681h3.849v1.375H12v2.036h4.386v1.423h-6V.231h5.806zm5.98 4.071a1.626 1.626 0 00.3.811 1.7 1.7 0 001.38.489 2.913 2.913 0 00.951-.129.919.919 0 00.693-.918.678.678 0 00-.344-.607 3.7 3.7 0 00-1.08-.371l-.838-.188a5.3 5.3 0 01-1.708-.607 1.93 1.93 0 01-.8-1.713A2.288 2.288 0 0121.5.704a3.27 3.27 0 012.272-.7 3.454 3.454 0 012.135.663 2.368 2.368 0 01.927 1.926h-1.59a1.136 1.136 0 00-.623-1.015 2.09 2.09 0 00-.961-.2 1.8 1.8 0 00-1.021.258.821.821 0 00-.381.72.681.681 0 00.376.634 4.6 4.6 0 001.031.328l1.364.328a3.527 3.527 0 011.354.575 1.936 1.936 0 01.709 1.617 2.282 2.282 0 01-.83 1.8 3.477 3.477 0 01-2.349.71 3.8 3.8 0 01-2.433-.7 2.347 2.347 0 01-.886-1.942zM37.364.231v1.4H35v6.517h-1.67V1.633h-2.379v-1.4zm5.873 1.375v5.167h1.525A1.647 1.647 0 0046.4 5.618a4.073 4.073 0 00.252-1.509 3.716 3.716 0 00-.379-1.856 1.6 1.6 0 00-1.507-.647zm1.8-1.375a4.161 4.161 0 011.225.172 2.614 2.614 0 011.348 1 3.523 3.523 0 01.564 1.278 6.137 6.137 0 01.15 1.311 5.262 5.262 0 01-.634 2.675 2.86 2.86 0 01-2.648 1.481h-3.411V.231z"/></g></svg>