<svg xmlns="http://www.w3.org/2000/svg" width="174.529" height="48.67"><g data-name="Group 50"><path data-name="Path 83" d="M86.514 15.128V1.984h-19.34l-4.96 6.82H77.59v13.144l-15.562 24.8h22.754l4.96-6.82H70.956zm24.928 24.738V0l-17.36 5.766 8.432 2.79v32.426l8.928 7.688 5.518-8.8z"/><path data-name="Path 82" d="M5.806 23.233H1.614v1.681h3.849v1.375H1.614v2.036H6v1.423H0v-7.917h5.806zm5.98 4.071a1.626 1.626 0 00.3.811 1.7 1.7 0 001.38.489 2.913 2.913 0 00.951-.129.919.919 0 00.693-.918.678.678 0 00-.344-.607 3.7 3.7 0 00-1.08-.371l-.838-.188a5.3 5.3 0 01-1.708-.607 1.93 1.93 0 01-.8-1.713 2.288 2.288 0 01.774-1.767 3.27 3.27 0 012.272-.7 3.454 3.454 0 012.135.663 2.368 2.368 0 01.927 1.926h-1.59a1.136 1.136 0 00-.623-1.015 2.09 2.09 0 00-.961-.2 1.8 1.8 0 00-1.021.258.821.821 0 00-.381.72.681.681 0 00.376.634 4.6 4.6 0 001.031.328l1.364.328a3.527 3.527 0 011.354.575 1.936 1.936 0 01.709 1.617 2.282 2.282 0 01-.83 1.8 3.477 3.477 0 01-2.349.71 3.8 3.8 0 01-2.433-.7 2.347 2.347 0 01-.886-1.942zm15.192-5.473v1.4h-2.364v6.517h-1.67v-6.515h-2.379v-1.4zm5.873 1.375v5.167h1.525a1.647 1.647 0 001.638-1.155 4.073 4.073 0 00.252-1.509 3.716 3.716 0 00-.379-1.856 1.6 1.6 0 00-1.507-.647zm1.8-1.375a4.161 4.161 0 011.225.172 2.614 2.614 0 011.348 1 3.523 3.523 0 01.564 1.278 6.137 6.137 0 01.15 1.311 5.262 5.262 0 01-.634 2.675 2.86 2.86 0 01-2.648 1.481h-3.411v-7.917z"/><path data-name="Path 81" d="M142.458 29.748a3.66 3.66 0 01.356-1.531 4.328 4.328 0 011.55-1.649 11.344 11.344 0 001.37-1.085 1.6 1.6 0 00.48-1.117 1.238 1.238 0 00-.276-.818.965.965 0 00-.784-.328.956.956 0 00-.951.521 2.584 2.584 0 00-.172.956h-1.487a3.763 3.763 0 01.36-1.609 2.241 2.241 0 012.175-1.166 2.758 2.758 0 011.966.685 2.368 2.368 0 01.73 1.813 2.454 2.454 0 01-.516 1.536 5.137 5.137 0 01-1.111.992l-.612.435q-.575.408-.787.591a1.731 1.731 0 00-.357.424h3.4v1.35zm10.98-3.819a7.336 7.336 0 00.22 2.054.887.887 0 00.9.712.874.874 0 00.894-.712 7.6 7.6 0 00.212-2.054 7.517 7.517 0 00-.209-2.081.867.867 0 00-.894-.677.879.879 0 00-.9.677 7.254 7.254 0 00-.223 2.081zm1.123-4.023a2.2 2.2 0 012.087 1.047 6.061 6.061 0 01.6 2.976 6.028 6.028 0 01-.6 2.97 2.2 2.2 0 01-2.087 1.042 2.2 2.2 0 01-2.087-1.042 6.028 6.028 0 01-.6-2.97 6.061 6.061 0 01.6-2.976 2.2 2.2 0 012.087-1.047zm6.732 7.842a3.66 3.66 0 01.36-1.531 4.328 4.328 0 011.547-1.649 11.344 11.344 0 001.37-1.085 1.6 1.6 0 00.478-1.117 1.238 1.238 0 00-.274-.818.965.965 0 00-.784-.328.956.956 0 00-.951.521 2.584 2.584 0 00-.172.956h-1.488a3.763 3.763 0 01.36-1.606 2.241 2.241 0 012.175-1.169 2.758 2.758 0 011.966.685 2.368 2.368 0 01.73 1.813 2.454 2.454 0 01-.516 1.536 5.137 5.137 0 01-1.112.994l-.612.435q-.575.408-.787.591a1.731 1.731 0 00-.357.424h3.4v1.348zm9.837-5.371v-1.042a6.785 6.785 0 001.015-.1 1.432 1.432 0 00.752-.408 1.344 1.344 0 00.3-.559 1.282 1.282 0 00.059-.312h1.273v7.792h-1.568v-5.371z"/></g></svg>