<svg xmlns="http://www.w3.org/2000/svg" width="58" height="247.323"><g data-name="Group 48"><g data-name="Group 10"><path data-name="Rectangle 6" fill="none" stroke="#d89700" stroke-miterlimit="10" stroke-width="2" d="M55.313 91.105H2.195V1h53.118z"/><path data-name="Path 41" d="M39.992 19.084l-6.344 2.061v6.671l-3.921-5.4-6.344 2.061 3.921-5.4-3.921-5.4 6.343 2.075 3.922-5.4v6.671z" fill="#d89700"/><path data-name="Line 7" fill="none" stroke="#d89700" stroke-miterlimit="10" stroke-width="2" d="M55.659 57.34L2.246 21.234"/><path data-name="Line 8" fill="none" stroke="#d89700" stroke-miterlimit="10" stroke-width="2" d="M55.308 62.969L2.003 26.43"/><path data-name="Line 9" fill="none" stroke="#d89700" stroke-miterlimit="10" stroke-width="2" d="M28.763 44.901v46.761"/><path data-name="Path 77" d="M40.527 66.402a1.88 1.88 0 00.072.568 1.248 1.248 0 00.513.649 2.1 2.1 0 00.779.291 2.972 2.972 0 00.526.051 2.451 2.451 0 001.449-.371 1.37 1.37 0 00.516-1.195v-1.206h-3.855zm4.44-1.9v2.034a1.917 1.917 0 01-.735 1.606 2.709 2.709 0 01-1.7.509 3.385 3.385 0 01-1.446-.3 1.856 1.856 0 01-1.14-1.819V64.51zm-2.963 10.265l2.218-.762-2.218-.81zm2.963-1.118v.769l-5.021 1.822v-.745l1.5-.509V73l-1.5-.544v-.7zm0 5.869v.68h-4.421v2.544h-.6v-3.223z" fill="#d89700"/><path data-name="Path 76" d="M18.217 52.335h-.6v-1.691h-4.421v-.69h4.423v-1.692h.6zm0 3.347v3.662h-.615v-3h-1.524v2.772h-.582v-2.772h-1.7v3.05h-.6v-3.712zm-5.021 7.695v-.82l2.574 1.8 2.447-1.688v.851l-1.921 1.282 1.921 1.272v.81l-2.447-1.685-2.574 1.767v-.845l2.064-1.353zm2.058 9.475l2.218-.762-2.218-.81zm2.963-1.117v.769l-5.021 1.821v-.745l1.5-.509v-1.986l-1.5-.541v-.7zm-3.401 6.309a1.372 1.372 0 00-.694.2 1.337 1.337 0 00-.5 1.193 2.111 2.111 0 00.109.7.775.775 0 00.765.607.655.655 0 00.584-.256 2.588 2.588 0 00.3-.813l.154-.68a3.08 3.08 0 01.332-.943 1.05 1.05 0 01.94-.479 1.447 1.447 0 011.103.471 1.879 1.879 0 01.434 1.326 2.3 2.3 0 01-.381 1.342 1.375 1.375 0 01-1.219.552v-.639a1.258 1.258 0 00.619-.219 1.271 1.271 0 00.393-1.056 1.222 1.222 0 00-.253-.865.792.792 0 00-.588-.263.574.574 0 00-.54.308 4.514 4.514 0 00-.273.913l-.161.7a2.157 2.157 0 01-.318.786 1.19 1.19 0 01-1.026.483 1.276 1.276 0 01-1.193-.607 2.717 2.717 0 01-.359-1.41 2.108 2.108 0 01.479-1.466 1.615 1.615 0 011.289-.52z" fill="#d89700"/></g><g data-name="Group 19"><path data-name="Line 10" fill="none" stroke="#d89700" stroke-width="2" d="M0 181.901h58"/><path data-name="Path 79" d="M24.9 213.781v-13.144H5.56l-4.96 6.82h15.376v13.144l-15.562 24.8h22.754l4.96-6.82H9.342zm24.928 24.738v-39.866l-17.36 5.766 8.432 2.79v32.426l8.928 7.688 5.518-8.8z" fill="#d89700"/><path data-name="Path 78" d="M16.192 158.886H12v1.681h3.849v1.375H12v2.036h4.386v1.423h-6v-7.917h5.806zm5.98 4.071a1.626 1.626 0 00.3.811 1.7 1.7 0 001.38.489 2.913 2.913 0 00.951-.129.919.919 0 00.693-.918.678.678 0 00-.344-.607 3.7 3.7 0 00-1.08-.371l-.838-.188a5.3 5.3 0 01-1.708-.607 1.93 1.93 0 01-.8-1.713 2.288 2.288 0 01.774-1.767 3.27 3.27 0 012.272-.7 3.454 3.454 0 012.135.663 2.368 2.368 0 01.927 1.926h-1.59a1.136 1.136 0 00-.623-1.015 2.09 2.09 0 00-.961-.2 1.8 1.8 0 00-1.021.258.821.821 0 00-.381.72.681.681 0 00.376.634 4.6 4.6 0 001.031.328l1.364.328a3.527 3.527 0 011.354.575 1.936 1.936 0 01.709 1.617 2.282 2.282 0 01-.83 1.8 3.477 3.477 0 01-2.349.71 3.8 3.8 0 01-2.433-.7 2.347 2.347 0 01-.886-1.942zm15.192-5.473v1.4H35v6.517h-1.67v-6.515h-2.379v-1.4zm5.873 1.375v5.167h1.525a1.647 1.647 0 001.638-1.155 4.073 4.073 0 00.252-1.509 3.716 3.716 0 00-.379-1.856 1.6 1.6 0 00-1.507-.647zm1.8-1.375a4.161 4.161 0 011.225.172 2.614 2.614 0 011.348 1 3.523 3.523 0 01.564 1.278 6.137 6.137 0 01.15 1.311 5.262 5.262 0 01-.634 2.675 2.86 2.86 0 01-2.648 1.481h-3.411v-7.917z" fill="#d89700"/></g></g></svg>