<svg xmlns="http://www.w3.org/2000/svg" width="55.118" height="92.104"><g data-name="Group 34"><path data-name="Rectangle 6" fill="none" stroke="#000" stroke-miterlimit="10" stroke-width="2" d="M54.118 91.104H1V.999h53.118z"/><path data-name="Path 41" d="M38.798 20.084l-6.344 2.061v6.671l-3.921-5.4-6.344 2.061 3.921-5.4-3.921-5.4 6.343 2.075 3.922-5.4v6.671z"/><path data-name="Line 7" fill="none" stroke="#000" stroke-miterlimit="10" stroke-width="2" d="M54.464 57.339L1.051 21.233"/><path data-name="Line 8" fill="none" stroke="#000" stroke-miterlimit="10" stroke-width="2" d="M54.114 62.97L.809 26.431"/><path data-name="Line 9" fill="none" stroke="#000" stroke-miterlimit="10" stroke-width="2" d="M27.568 44.776v46.886"/><path data-name="Path 81" d="M39.332 65.402a1.88 1.88 0 00.072.568 1.248 1.248 0 00.513.649 2.1 2.1 0 00.779.291 2.972 2.972 0 00.526.051 2.451 2.451 0 001.449-.371 1.37 1.37 0 00.516-1.195v-1.206h-3.855zm4.44-1.9v2.034a1.917 1.917 0 01-.735 1.606 2.709 2.709 0 01-1.7.509 3.385 3.385 0 01-1.446-.3 1.856 1.856 0 01-1.14-1.819V63.51zm-2.963 10.265l2.218-.762-2.218-.81zm2.963-1.118v.769l-5.021 1.822v-.745l1.5-.509V72l-1.5-.544v-.7zm0 5.869v.68h-4.421v2.544h-.6v-3.223z"/><path data-name="Path 80" d="M17.023 52.335h-.6v-1.691h-4.421v-.69h4.423v-1.692h.6zm0 3.347v3.662h-.615v-3h-1.524v2.772h-.582v-2.772h-1.7v3.05h-.6v-3.712zm-5.021 7.695v-.82l2.574 1.8 2.447-1.688v.851l-1.921 1.282 1.921 1.272v.81l-2.447-1.685-2.574 1.767v-.845l2.064-1.353zm2.058 9.475l2.218-.762-2.218-.81zm2.963-1.117v.769l-5.021 1.821v-.745l1.5-.509v-1.986l-1.5-.541v-.7zm-3.401 6.309a1.372 1.372 0 00-.694.2 1.337 1.337 0 00-.5 1.193 2.111 2.111 0 00.109.7.775.775 0 00.765.607.655.655 0 00.584-.256 2.588 2.588 0 00.3-.813l.154-.68a3.08 3.08 0 01.332-.943 1.05 1.05 0 01.94-.479 1.447 1.447 0 011.103.471 1.879 1.879 0 01.434 1.326 2.3 2.3 0 01-.381 1.342 1.375 1.375 0 01-1.219.552v-.639a1.258 1.258 0 00.619-.219 1.271 1.271 0 00.393-1.056 1.222 1.222 0 00-.253-.865.792.792 0 00-.588-.263.574.574 0 00-.54.308 4.514 4.514 0 00-.273.913l-.161.7a2.157 2.157 0 01-.318.786 1.19 1.19 0 01-1.026.483 1.276 1.276 0 01-1.193-.607 2.717 2.717 0 01-.359-1.41 2.108 2.108 0 01.479-1.466 1.615 1.615 0 011.289-.52z"/></g></svg>