<?xml version="1.0" encoding="UTF-8"?> <svg xmlns="http://www.w3.org/2000/svg" width="578.393" height="323.861" viewBox="0 0 578.393 323.861"><g id="Group_38" data-name="Group 38" transform="translate(-431 -278.821)"><g id="Group_8" data-name="Group 8" transform="translate(431 420.973)" opacity="0.595"><path id="Path_23" data-name="Path 23" d="M340.834,152.975h0a9.97,9.97,0,0,1-.044-18.579h0a9.97,9.97,0,0,1,13.613,9.281h0A9.97,9.97,0,0,1,340.834,152.975Z" transform="translate(40.887 -133.697)" fill="#fff"></path><path id="Path_24" data-name="Path 24" d="M95.519,247.306V211.634c0-6-1.092-12.341-5.2-16.343-3.435-3.348-5.69-8.366-22.06-5.463h0s16.587-9.034,20.756-13.9c2.973-3.469,6.506-9.367,6.506-14.85v-1.7a14.38,14.38,0,0,0-6.292-11.9c-15.1-10.286-36.041-8.227-49.047,4.6l-.387.384L35.487,147.4A21.287,21.287,0,0,0,3.276,149.85L0,154.308a15.7,15.7,0,0,1,14.617,15.64v83.337l11.72-3.423a18.787,18.787,0,0,0,13.456-17.942V196.724h.548c16.571,0,30,6.54,30,30v21.843a22.515,22.515,0,0,0,14.916,21.218,21.1,21.1,0,0,0,23.867-5.986q.429-.5.838-1.021A15.532,15.532,0,0,1,95.519,247.306ZM40.34,193.466h-.548V159.527c0-2.148,1.6-4.134,3.89-5.253a21.782,21.782,0,0,1,16.884-.955c7.13,2.351,9.778,5.34,9.777,10.739C70.342,180.6,56.883,193.466,40.34,193.466Z" transform="translate(0 -132.813)" fill="#fff"></path><g id="Group_7" data-name="Group 7" transform="translate(113.137 1.309)"><path id="Path_25" data-name="Path 25" d="M150,134.864l-19.743,19.742H115.93l19.743-19.742Z" transform="translate(-98.965 -134.864)" fill="#fff"></path><path id="Path_26" data-name="Path 26" d="M147.84,167.1a31.238,31.238,0,0,0-33.878,2.51l-.816.618a31.376,31.376,0,0,0-12.332,24.851v20.47a29.322,29.322,0,0,0,53.3,16.888l2.26-3.208H133.9a14.9,14.9,0,0,1-14.88-14.88v-.383l.359-.13L164.041,197.4v-2.947A31.2,31.2,0,0,0,147.84,167.1Zm-28.815,28.378v-1.023a20.77,20.77,0,0,1,20.769-20.769h.547V188.3a7.177,7.177,0,0,1-7.178,7.179Z" transform="translate(-100.813 -131.393)" fill="#fff"></path></g><path id="Path_27" data-name="Path 27" d="M319.977,215.122v-29.63a26.792,26.792,0,0,0-10.708-21.369,23.991,23.991,0,0,0-27.761-.655l-8.022,5.419V158.216l-21.672,10.912v48.936a25.392,25.392,0,0,0,18.206,24.472l3.466,1.04V172.806h1.353c.281,0,.562,0,.847,0,6.121,0,13.458.2,18.12,4.85,2.984,2.981,4.5,7.52,4.5,13.5v32.537a18.007,18.007,0,0,0,33.264,9.563l2.157-3.442A14.736,14.736,0,0,1,319.977,215.122Z" transform="translate(30.783 -130.7)" fill="#fff"></path><path id="Path_28" data-name="Path 28" d="M510.562,242.641V185.49a26.8,26.8,0,0,0-10.71-21.366,23.989,23.989,0,0,0-27.762-.658l-8.02,5.424V158.214L442.4,169.126v48.94A25.391,25.391,0,0,0,460.6,242.535l3.467,1.04V172.807h1.352c.281,0,.563,0,.848,0,6.121,0,13.46.2,18.12,4.853,2.985,2.978,4.5,7.52,4.5,13.5v60.055a18.007,18.007,0,0,0,33.263,9.563l2.159-3.444A14.735,14.735,0,0,1,510.562,242.641Z" transform="translate(54.081 -130.7)" fill="#fff"></path><path id="Path_29" data-name="Path 29" d="M356.159,215.122V158.216l-21.673,10.912v54.56a18.007,18.007,0,0,0,33.264,9.563l2.157-3.442A14.736,14.736,0,0,1,356.159,215.122Z" transform="translate(40.889 -130.7)" fill="#fff"></path><path id="Path_30" data-name="Path 30" d="M217.592,227.5c-6.558,3.984-13.945,4.009-18.955.845-4.052-2.56-6.285-6.943-6.285-12.339V158.212L170.68,169.126v50.806a23.848,23.848,0,0,0,9.6,19.074c9.555,7.1,25.39,4.49,32.129-2.395,3.285-3.356,4.6-5.222,5.128-6.2l.553-1.025.438,1.078a17.987,17.987,0,0,0,31.912,2.787l2.158-3.444a14.738,14.738,0,0,1-13.749-14.689V158.214l-21.673,10.912v54.565A17.972,17.972,0,0,0,217.592,227.5Z" transform="translate(20.865 -130.701)" fill="#fff"></path><path id="Path_31" data-name="Path 31" d="M425.493,168.939l-25.8-12.9-11,8.352a46.524,46.524,0,0,0-18.289,36.851,46.009,46.009,0,0,0,25.647,41.419l13.391,6.67a75.209,75.209,0,0,0,29.127-59.224A23.539,23.539,0,0,0,425.493,168.939Zm-8.633,58.974h-.548A24.14,24.14,0,0,1,392.2,203.8V172.23h.548a24.14,24.14,0,0,1,24.113,24.113Z" transform="translate(45.281 -130.966)" fill="#fff"></path></g><g id="Group_9" data-name="Group 9" transform="translate(622.26 578.768)"><path id="Path_32" data-name="Path 32" d="M188.889,278.554a8.55,8.55,0,0,0-3.157-3.045,8.7,8.7,0,0,0-4.3-1.111h-11v23.7h5.965v-6.023a.851.851,0,0,1,.9-.9h1.844a.953.953,0,0,1,.92.573l3.26,6.346,6.4,0-3.825-7.051a1.02,1.02,0,0,1-.113-.614.8.8,0,0,1,.455-.625,7.868,7.868,0,0,0,3.836-7.022A7.993,7.993,0,0,0,188.889,278.554Zm-5.848,6.561a3.8,3.8,0,0,1-2.728.97h-3.026a.849.849,0,0,1-.9-.894v-4.767a.849.849,0,0,1,.9-.9h3.269a3.546,3.546,0,0,1,2.438.942,3.036,3.036,0,0,1,1.068,2.321A3.129,3.129,0,0,1,183.041,285.114Z" transform="translate(-170.426 -274.292)" fill="#d89700"></path><path id="Path_33" data-name="Path 33" d="M211.133,274.4,200,298.1h5.554l1.289-2.552a.939.939,0,0,1,.907-.543h9.463a.923.923,0,0,1,.884.576l1.277,2.517,5.631,0-11.144-23.7Zm3.876,15.078-.007.01a.8.8,0,0,1-.715.389H210.67a.774.774,0,0,1-.826-.791.92.92,0,0,1,.093-.42l1.842-3.786a.839.839,0,0,1,.735-.481.76.76,0,0,1,.78.61l1.734,3.67A.878.878,0,0,1,215.009,289.477Z" transform="translate(-166.811 -274.292)" fill="#d89700"></path><path id="Path_34" data-name="Path 34" d="M248.235,292a4.782,4.782,0,0,1-3.385,1.087,5.044,5.044,0,0,1-2.536-.715,5.54,5.54,0,0,1-2.071-2.274,8.269,8.269,0,0,1-.811-3.891,8.084,8.084,0,0,1,.814-3.841,5.448,5.448,0,0,1,2.073-2.234,5.126,5.126,0,0,1,2.532-.7,4.777,4.777,0,0,1,3.385,1.087A6.9,6.9,0,0,1,249.871,283l5.631-.728a9.139,9.139,0,0,0-1.833-4.079,9.8,9.8,0,0,0-3.675-2.863h0a11.461,11.461,0,0,0-4.831-1.03,11.619,11.619,0,0,0-6,1.576,11.324,11.324,0,0,0-4.181,4.3,12.8,12.8,0,0,0,0,12.078,11.746,11.746,0,0,0,15.031,4.933,9.8,9.8,0,0,0,3.692-2.866,8.826,8.826,0,0,0,1.792-4.091l-5.622-.725A6.9,6.9,0,0,1,248.235,292Z" transform="translate(-162.72 -274.304)" fill="#d89700"></path><rect id="Rectangle_3" data-name="Rectangle 3" width="5.965" height="23.702" transform="translate(110.202 0.105)" fill="#d89700"></rect><path id="Path_35" data-name="Path 35" d="M305.724,284.562a.768.768,0,0,1-.755.862.8.8,0,0,1-.649-.359l-9.261-10.648-3.84-.019v23.7h5.966V287.936a.767.767,0,0,1,.758-.861.8.8,0,0,1,.644.354l9.3,10.651,3.838.02V274.4h-6Z" transform="translate(-155.66 -274.292)" fill="#d89700"></path><path id="Path_36" data-name="Path 36" d="M336.24,288.965h4.391a.832.832,0,0,1,.861.893,2.514,2.514,0,0,1-.573,1.454,4.21,4.21,0,0,1-1.635,1.269,5.959,5.959,0,0,1-2.547.5,6.119,6.119,0,0,1-4.755-1.953,7.074,7.074,0,0,1-1.741-4.892,7.273,7.273,0,0,1,1.625-4.838,5.479,5.479,0,0,1,4.383-1.968,5.151,5.151,0,0,1,2.855.8,6.3,6.3,0,0,1,2,2.147l.152.009,5.445-.681a10.167,10.167,0,0,0-2.063-3.643,10.825,10.825,0,0,0-3.8-2.748A12.315,12.315,0,0,0,335.8,274.3a11.151,11.151,0,0,0-5.87,1.588,11.515,11.515,0,0,0-4.138,4.339,12.306,12.306,0,0,0-1.513,6.011,11.589,11.589,0,0,0,1.626,6,12.222,12.222,0,0,0,4.4,4.364,11.7,11.7,0,0,0,5.986,1.614,11.037,11.037,0,0,0,5.9-1.573,10.478,10.478,0,0,0,3.921-4.3,13.454,13.454,0,0,0,1.385-6.1v-1.085H336.24Z" transform="translate(-151.619 -274.304)" fill="#d89700"></path></g><g id="rr_crest_r2" transform="translate(-29.248 1661.375)"><path id="Path_82" data-name="Path 82" d="M616.749,334.844c-3.939-3.552-10-8.2-19.519-14.547-16.291-11.112-24.586-25.118-24.586-41.581V237.993a44.85,44.85,0,0,0,20.363-16.024h47.486a44.843,44.843,0,0,0,20.363,16.024v40.723c0,16.463-8.3,30.47-24.655,41.631C626.72,326.663,620.679,331.3,616.749,334.844Z" transform="translate(132.694 -1603.523)" fill="none" stroke="#d89700" stroke-miterlimit="10" stroke-width="2"></path><path id="Path_83" data-name="Path 83" d="M637.789,286.375a31.85,31.85,0,0,1-.753-4.557l-.029-.325,1.4,1.112a60.619,60.619,0,0,0-1.994-13.344l-.043-.157.163-.018a2.071,2.071,0,0,1,1.338.328c-.861-3.144-2.1-6.651-4.58-9.371-2.273-2.488-6.248-4.538-10-3.5a2.684,2.684,0,0,0-.9.416c-1,.713-.756,1.985-.5,3.332.082.426.15.869.206,1.284.053.391.984,1.009,1.585,1.127a5.9,5.9,0,0,0,1.214.063,5.3,5.3,0,0,0,.683-.043,4.826,4.826,0,0,0,.993-.3,2.62,2.62,0,0,0,1.1-1.075l.234-.392.025.456c.059,1.046-.505,1.729-1.726,2.088a7.586,7.586,0,0,1-2.668.207H623.5a5.082,5.082,0,0,1-1.316-.3c.037,7.139-3.721,14.992-9.86,20.6a17.376,17.376,0,0,0,3.931.328l.722.009-.34.247a18.469,18.469,0,0,0-7.06,10.454l3.288-2.141-.129.382a20.5,20.5,0,0,0-.267,12.02,5.067,5.067,0,0,1,2.655-2.848l.215-.1-.018.235c-.173,2.267.745,4.546,1.556,6.554.9,2.239,1.876,4.335,3.808,5.368a13.625,13.625,0,0,1,8.541-10.024c.159-.059.322-.119.485-.177,1.129-.408,2.3-.83,2.811-1.8.679-1.287-.124-2.885-1-4.279l-.056-.089.069-.08c1.292-1.461,3.016-1.485,4.841-1.512a9.166,9.166,0,0,0,4.329-.776A5.717,5.717,0,0,0,643.588,293a2.284,2.284,0,0,1,.4-.627A8.461,8.461,0,0,1,639,289.4,8.69,8.69,0,0,1,637.789,286.375Zm-11.73-25.618a.853.853,0,0,1-.494.513,1.664,1.664,0,0,1-.817.085,2.859,2.859,0,0,1-.881-.25,1.68,1.68,0,0,1-.911-1.844,1.706,1.706,0,0,1,1.55-1.174,1.5,1.5,0,0,1,1.573.839A2.946,2.946,0,0,1,626.059,260.757ZM625.046,270a9.674,9.674,0,0,0,1.12.646l-.193-2.34.265.248c.762.715.792,2.791.794,2.878v.065l-.049.043a.64.64,0,0,1-.485.12h-.029c-.5-.072-1.043-.564-1.616-1.463l-.35-.546ZM617.7,285.973l.271.066c-.165,1.189-.061,1.963.312,2.3a1.257,1.257,0,0,0,1.152.126c.2-.044.316-.069.392.026a.181.181,0,0,1,.007.2l-.012.02c-.844,1.118-1.428,1.375-1.81,1.333a.662.662,0,0,1-.241-.075C617.058,289.592,617.027,287.908,617.7,285.973Zm1.435,10.542c-.57,1.52-1.135,1.812-1.528,1.767l-.061-.009c-.79-.164-1.311-1.826-1.213-3.866l.279-.015c.179,1.208.5,1.937.962,2.166a1.247,1.247,0,0,0,1.123-.182c.175-.092.279-.152.38-.077a.177.177,0,0,1,.064.192Zm2.056-18.171-.01-1.154.286,1.118c.22.856.537,1.385.945,1.573a1.352,1.352,0,0,0,1.151-.161c.168-.084.269-.134.364-.064a.172.172,0,0,1,.064.174l-.008.028c-.509,1.312-1.089,1.475-1.419,1.438a.369.369,0,0,1-.049-.007c-.749-.136-1.306-1.375-1.315-2.945Zm1.7,26.734a.715.715,0,0,1-.327.034c-.771-.086-1.893-1.2-2.776-2.812l.231-.157q1.219,1.484,2,1.427c.43-.034.672-.452.817-.7.094-.163.157-.27.279-.26a.206.206,0,0,1,.156.131l.007.021c.346,1.672-.017,2.182-.378,2.317Zm2.323-13.945c-.335,1.359-.713,2-1.157,1.947h-.009c-.741-.1-1.084-2.2-1.039-4.236l.279-.012c.206,1.817.57,2.332.838,2.444.243.111.509-.109.684-.247.125-.1.216-.172.324-.111a.18.18,0,0,1,.082.2Zm3.371-8.381-.024.1-.1.006a.668.668,0,0,1-.082,0c-.3-.034-1.336-.339-1.888-2.895l-.143-.669.4.558c.5.711.982,1.322,1.237,1.642l.549-3.094.187.4c.528,1.122-.1,3.838-.131,3.953Zm5.935-5.726-.029.15-.147-.043c-.074-.02-1.811-.549-2.458-3.972l-.143-.76.4.66c.561.926,1.378,2.03,1.754,2.525l.533-3.676.2.48c.538,1.31-.073,4.5-.1,4.637ZM632.556,266.8c.577.564,1.113,1.042,1.41,1.3l-.109-3.034.271.374c.7.963.657,3.643.655,3.757v.105l-.1.028a.688.688,0,0,1-.235.009c-.4-.046-1.26-.4-2.115-2.386l-.281-.65Zm-2.385,25.173-.012.057-.048.03a.584.584,0,0,1-.369.072.838.838,0,0,1-.177-.043c-.5-.184-.927-.871-1.28-2.041l-.185-.615.425.482a9.68,9.68,0,0,0,.977.991l.41-2.754.2.336C630.7,289.468,630.193,291.871,630.171,291.973Zm5.175-5.292a.842.842,0,0,1-.123-.01c-.535-.061-2.627-.476-3.926-3.351l-.254-.56.473.4a36.853,36.853,0,0,0,2.978,2.171l.131-3.715.237.29c.966,1.186.643,4.512.63,4.654l-.013.129Zm14.889-31.013c-1.588.01-3.178.052-4.726.126a.484.484,0,0,1-.507-.439,3.887,3.887,0,0,1,.986-2.3,4.171,4.171,0,0,0,.92-1.87.406.406,0,0,0-.122-.322.445.445,0,0,0-.339-.122,27.094,27.094,0,0,0-7.606,2.207.6.6,0,0,1-.552-.053.565.565,0,0,1-.263-.457c-.029-.807-.08-2.2-.109-3.019a.374.374,0,0,0-.168-.3.434.434,0,0,0-.373-.052,10.969,10.969,0,0,0-2.487,1.4c-.2.138-.406.276-.609.409a6.045,6.045,0,0,1-3.7,1.26h-.046a1.221,1.221,0,0,1-.862-.517,2.385,2.385,0,0,1-.291-2.743q-.077-.012-.155-.02a3.745,3.745,0,0,0-2.791.813,7.031,7.031,0,0,0-.661.656c-.16.173-.325.35-.5.516a5.293,5.293,0,0,1-2.2,1.217,1.207,1.207,0,0,1-1.456-.748,7.1,7.1,0,0,1-.205-2.581l.01-.252c-.02-.035-.036-.047-.058-.044a11.667,11.667,0,0,0-2.764,1.215,6.383,6.383,0,0,0-2.006,2.445,4.219,4.219,0,0,0-.393,1.584l-.011.213-.192-.1a6.9,6.9,0,0,0-1.661-.6c-1.878-.4-5.629-.242-7.493,1.077a2.507,2.507,0,0,0-1.074,1.489,9.028,9.028,0,0,1,5.653,1.154,23.489,23.489,0,0,1,4.725,3.661,11.073,11.073,0,0,1,1.8,2l.477.736-.682-.55a20.094,20.094,0,0,0-2.092-1.522,8.332,8.332,0,0,0-3.518-1.292,8.681,8.681,0,0,1,2.619,3.406l.1.22-.242-.022c-1.823-.166-6.232-.873-8.449-3.833-.05,2.3,2.018,4.822,4.1,5.936a13.382,13.382,0,0,0,4.087,1.218,21.308,21.308,0,0,1,2.909.683l.855.275-.748.045c-.146.009-.3.02-.462.032a11.353,11.353,0,0,1-1.748.042c-2.326,2.552-6.091,2.43-9.417,2.323-1.341-.044-2.713-.015-3.463.849a3.231,3.231,0,0,0-.548,2.281,11.69,11.69,0,0,0,2.715,6.806,1,1,0,0,0,1.224.233l.513-.279.065.129c.76,1.523,2.887,1.989,4.422,1.553a8.514,8.514,0,0,0,3.972-2.982,26.691,26.691,0,0,0,6.3-20.347,2.731,2.731,0,0,1,.384-2.3,2.424,2.424,0,0,1,1.232-.572,12.019,12.019,0,0,1,7.272.873,20.682,20.682,0,0,1,6.039,4.2c.177.169.354.342.529.514a15.649,15.649,0,0,0,2.327,1.995,4.927,4.927,0,0,0,3.549.855,6.1,6.1,0,0,0,2.223-1.152,54.981,54.981,0,0,0,6.66-5.639,1.012,1.012,0,0,0,.257-1.076C651.23,255.7,650.771,255.666,650.235,255.668Zm-35.42-.7a4.61,4.61,0,0,1-.741.193.709.709,0,0,1-.2,0,.8.8,0,0,1-.507-.249.473.473,0,0,1-.124-.37.465.465,0,0,1,.2-.323.756.756,0,0,1,.458-.122,1.516,1.516,0,0,1,.425.078c.2.064.635.309.662.511a.252.252,0,0,1-.1.233.436.436,0,0,1-.056.034Zm-9.178,20.65a5.449,5.449,0,0,0,.4,2.716l.161.443-.377-.282c-.028-.021-.687-.533-.929-2.625-.2-1.754,1.934-2.593,4.64-3.654a20.477,20.477,0,0,1,2.215-.594c-.047.026-5.447,2.473-6.109,4Zm19.835-15.955a.506.506,0,0,1-.019.4.534.534,0,0,1-.332.247.6.6,0,0,1-.466-.05.694.694,0,0,1-.28-.329.49.49,0,0,1,0-.436.543.543,0,0,1,.451-.217,1.257,1.257,0,0,1,.159.006,1.53,1.53,0,0,1,.182.032h0a.578.578,0,0,1,.306.348Z" transform="translate(136.205 -1600.33)" fill="#d89700"></path><path id="Path_84" data-name="Path 84" d="M587.831,236.342l1.6,4.933h5.187l-4.2,3.049,1.6,4.933-4.2-3.049-4.2,3.049,1.6-4.933-4.2-3.049H586.2Z" transform="translate(133.707 -1601.788)" fill="#d89700"></path><line id="Line_16" data-name="Line 16" x1="42.858" y2="71.664" transform="translate(707.625 -1381.821)" fill="none" stroke="#d89700" stroke-miterlimit="10" stroke-width="2"></line><line id="Line_17" data-name="Line 17" x1="46.495" y2="76.685" transform="translate(709.892 -1381.43)" fill="none" stroke="#d89700" stroke-miterlimit="10" stroke-width="2"></line></g></g></svg> 