<?xml version="1.0" encoding="UTF-8"?>
<svg id="Layer_2" data-name="Layer 2" xmlns="http://www.w3.org/2000/svg" viewBox="0 0 128.84 170.91">
  <defs>
    <style>
      .cls-1 {
        fill: #c69113;
      }

      .cls-1, .cls-2, .cls-3, .cls-4 {
        stroke-width: 0px;
      }

      .cls-2 {
        fill: #001e42;
      }

      .cls-3 {
        fill: #a91a2d;
      }

      .cls-4 {
        fill: #fff;
      }
    </style>
  </defs>
  <g id="Layer_1-2" data-name="Layer 1">
    <g>
      <path class="cls-4" d="M65.28,5c19.12,0,38.27,2.64,58.57,7.95,0,4.43-.13,47.21-.14,62.51v.42c0,2.48-.09,4.94-.27,7.38-.32,4.39-.92,8.69-1.79,12.91-6.14,29.67-25.87,54.62-56.6,69.12-.08.04-.16.08-.25.12C26.99,148,5.58,113.66,5.58,75.58c0-14.92-.58-58.35-.58-62.19C25.88,7.8,45.57,5,65.28,5M65.28,0C45.39,0,25.25,2.8,3.71,8.55l-3.71.99v3.84c0,1.32.06,6.97.15,14.8.17,14.95.43,37.53.43,47.4,0,19.88,5.62,39.03,16.24,55.39,10.82,16.66,26.69,30.14,45.89,38.98l2.11.97,2.1-.98c.08-.04.16-.08.24-.11,31.71-14.96,52.8-40.75,59.39-72.64.92-4.46,1.56-9.02,1.88-13.56.19-2.58.28-5.19.28-7.74v-.42c0-9.83.06-30.78.1-46.08.02-8.37.04-14.84.04-16.42v-3.86l-3.73-.98C104.25,2.65,84.68,0,65.28,0h0Z"/>
      <g>
        <path class="cls-4" d="M10.07,17.27c.03,2.68.07,6.48.12,10.79.15,13.55.38,33.36.42,44.36.75-.11,1.5-.22,2.25-.32.28-.04.56-.08.85-.11,4.47-.6,8.97-1.12,13.49-1.56.36-.04.72-.07,1.09-.1,4.44-.42,8.9-.76,13.38-1.03.46-.03.91-.05,1.37-.08,2.19-.12,4.38-.23,6.58-.32.03,0,.05,0,.08,0,2.2-.08,4.4-.14,6.61-.19.53-.01,1.06-.02,1.58-.03,2.21-.04,4.41-.06,6.63-.06,1.67,0,3.33.01,5,.03.32,0,.65.01.97.02,1.34.02,2.69.04,4.03.08.28,0,.56.02.85.03,1.39.04,2.78.08,4.17.14.18,0,.35.02.53.02,1.49.06,2.99.13,4.48.2.08,0,.17,0,.25.01,1.59.08,3.17.18,4.75.28,0,0,0,0,.01,0,2.48.16,4.96.35,7.43.56.98.08,1.95.19,2.93.28,1.48.14,2.96.26,4.43.42,0,0-.01,0-.02,0,.05,0,.09,0,.14.01,2.29.24,4.57.5,6.84.78-33.7,7.43-65.72,19.32-95.41,35.03,2.12,6,4.87,11.76,8.22,17.19,28.98-19.66,61.14-35.43,94.53-46.58,0-.41.02-.83.02-1.24,0-9.65.06-30.97.1-46.53.01-5.05.03-9.45.03-12.48-18.61-4.59-36.16-6.82-53.52-6.82s-35.94,2.37-55.2,7.23ZM95.4,63.4c-1.23-.12-2.47-.23-3.7-.34-2.04-2.98-4.09-5.95-6.13-8.89v8.43c-1.02-.07-2.04-.13-3.06-.19v-12.84c1.24.07,2.49.15,3.73.23,2.04,2.9,4.07,5.82,6.11,8.76v-8.29c1.02.09,2.03.18,3.05.28v12.84ZM111.29,56.91c-1.24-.18-2.47-.36-3.71-.53v-.28c0-1.05-.43-1.47-2.2-1.71-.29-.04-.58-.07-.87-.11-1.89-.24-2.34.07-2.34,2.41v2.35c0,2,.59,2.46,2.44,2.69.31.04.62.08.93.12,1.67.22,2.38.03,2.38-1.39v-.32c-.9-.12-1.8-.25-2.7-.36v-2.37c2.03.26,4.05.55,6.08.85v2.36c0,.39-.02.72-.05,1.05-.27,2.54-1.92,3.38-5.35,2.92-.63-.08-1.25-.16-1.88-.24-3.77-.47-5.56-1.93-5.55-5.21,0-1.24,0-2.48,0-3.72,0-3.3,1.78-4.38,5.55-3.91.61.08,1.23.16,1.84.24,3.6.48,5.44,1.93,5.45,4.62v.54ZM91.11,18.13c3.57.43,7.14.95,10.69,1.56.02.06.03.13.05.19,3.45,9.4,6.89,18.87,10.31,28.44-2.57-.57-5.15-1.1-7.73-1.58-.7-1.9-1.39-3.8-2.09-5.69-3.91-.69-7.84-1.26-11.78-1.73-.7,1.69-1.4,3.38-2.1,5.08-2.62-.28-5.24-.52-7.86-.71,3.51-8.61,7.02-17.14,10.51-25.58ZM30.21,55.46c-1.24.14-2.48.29-3.72.44v-.13c0-1.17-.47-1.51-2.23-1.28-.17.02-.33.04-.5.07-1.77.24-2.34.7-2.34,2.73v2.64c0,2,.59,2.3,2.44,2.05.16-.02.31-.04.46-.06,1.67-.22,2.16-.57,2.16-1.98v-.32c1.24-.15,2.48-.3,3.72-.44v.31c0,3.19-1.74,4.61-5.49,5.1-.49.06-.98.13-1.46.2-3.77.52-5.21-.53-5.21-3.81v-3.72c0-3.3,1.44-4.79,5.21-5.31.49-.07.98-.13,1.46-.2,3.65-.48,5.49.51,5.49,3.36v.36ZM18.66,38.17v-16.46c2.32-.52,4.64-.99,6.97-1.43v15.67c0,3.93,1.8,5.23,6.04,4.55.51-.08,1.02-.16,1.53-.24,3.43-.51,5.29-1.62,5.29-6.33v-15.67c2.35-.3,4.7-.55,7.05-.77v16.46c0,6.8-3.36,9.75-11.53,10.92-1.05.15-2.09.32-3.14.49-8.47,1.41-12.2-.56-12.2-7.19ZM40.38,58.33v4.6c-1.13.09-2.26.19-3.39.29v-4.56c-1.85-2.59-3.7-5.16-5.55-7.72,1.27-.14,2.54-.27,3.81-.39,1.1,1.67,2.2,3.35,3.31,5.04,1.06-1.87,2.12-3.74,3.19-5.6,1.31-.1,2.62-.19,3.92-.27-1.76,2.86-3.52,5.73-5.28,8.62ZM59.4,53.54c-1.13.02-2.27.05-3.4.08v-.13c0-1.17-.68-1.55-2.45-1.48-.17,0-.34.01-.5.02-1.78.07-2.48.49-2.48,2.51v2.64c0,2,.73,2.35,2.59,2.28.15,0,.31-.01.47-.02,1.68-.06,2.38-.37,2.38-1.79v-.32c1.13-.03,2.27-.06,3.4-.08v.3c0,3.19-1.61,4.44-5.38,4.57-.49.02-.98.04-1.47.06-3.79.16-5.38-1.02-5.38-4.3v-3.72c0-3.3,1.59-4.67,5.38-4.83.49-.02.98-.04,1.47-.06,3.67-.13,5.38,1.03,5.38,3.88v.37ZM72.66,62.02c-3.4-.08-6.8-.11-10.2-.08v-12.84c1.13,0,2.27-.01,3.4-.01v9.8c2.27,0,4.53.03,6.8.09v3.04ZM78.77,62.23c-1.13-.05-2.27-.09-3.4-.13v-12.84c1.13.04,2.27.08,3.4.13v12.84ZM77.37,24.04v.45c-2.16-.12-4.32-.21-6.48-.27-.07-2.72-1.61-3.76-5.83-3.77-4.34.01-6.15.5-6.15,2.95,0,1.87.81,2.4,3.95,2.69,2.27.22,4.55.47,6.82.76,5.63.73,8.88,2.42,8.88,7.93,0,6.13-3.29,8.16-11.75,8.06-1.19,0-2.38,0-3.57,0-8.45.13-11.68-1.82-11.81-7.99,2.16-.14,4.32-.25,6.48-.33.14,3.7,3.21,4.1,6.22,4.09.72,0,1.43,0,2.15,0,3.91.03,5.3-.85,5.3-3.54,0-2.3-1.4-2.93-3.99-3.24-2.4-.26-4.79-.48-7.18-.65-6.15-.52-8.43-2.32-8.43-7.07,0-5.14,3.42-7.68,11.46-7.79.89,0,1.79-.01,2.68,0,8.42.07,11.25,2.24,11.25,7.73Z"/>
        <path class="cls-4" d="M96.72,24.2c-.18-.03-.36-.05-.54-.08-1.28,3.36-2.56,6.73-3.85,10.11,2.74.35,5.47.75,8.19,1.2-1.27-3.76-2.53-7.5-3.8-11.23Z"/>
        <path class="cls-4" d="M56.87,155.53c17.51-20.2,37.11-38.54,58.47-54.68,1.33-4.82,2.27-9.77,2.8-14.83-28.81,15.27-55.31,34.14-79.13,56,5.34,5.08,11.32,9.62,17.86,13.51Z"/>
        <path class="cls-4" d="M13.71,71.98c4.47-.6,8.97-1.12,13.49-1.56-4.52.44-9.02.96-13.49,1.56Z"/>
        <path class="cls-4" d="M28.29,70.32c4.44-.42,8.9-.76,13.38-1.03-4.48.27-8.94.61-13.38,1.03Z"/>
        <path class="cls-4" d="M103.44,70.65c.34.01.69.03,1.03.04-.05,0-.09,0-.14-.01-.3-.01-.6-.02-.9-.03Z"/>
        <path class="cls-1" d="M99.92,70.26c-.98-.09-1.95-.19-2.93-.28-2.47-.21-4.95-.4-7.43-.56,0,0,0,0-.01,0-1.58-.1-3.16-.19-4.75-.28-.08,0-.17,0-.25-.01-1.49-.08-2.98-.14-4.48-.2-.18,0-.35-.02-.53-.02-1.39-.05-2.78-.1-4.17-.14-.28,0-.56-.02-.85-.03-1.34-.03-2.69-.06-4.03-.08-.32,0-.65-.01-.97-.02-1.66-.02-3.33-.03-5-.03-2.21,0-4.42.03-6.63.06-.53,0-1.06.02-1.58.03-2.21.05-4.41.11-6.61.19-.03,0-.05,0-.08,0-2.2.08-4.39.19-6.58.32-.46.03-.91.05-1.37.08-4.48.27-8.94.61-13.38,1.03-.36.03-.73.07-1.09.1-4.52.44-9.02.96-13.49,1.56-.28.04-.57.07-.85.11-.75.1-1.5.22-2.25.32,0,1.15,0,2.21,0,3.16,0,.83.02,1.66.04,2.49,24.82-5.09,50.52-7.76,76.84-7.76,2.6,0,5.2.04,7.79.09.57.01,1.15.03,1.72.04,2.15.05,4.29.12,6.42.21.3.01.6.02.9.03-1.47-.15-2.94-.28-4.41-.42Z"/>
        <path class="cls-1" d="M104.35,70.68c-1.47-.15-2.96-.28-4.43-.42,1.47.14,2.95.26,4.41.42,0,0,.01,0,.02,0Z"/>
        <path class="cls-3" d="M25.24,125.5c3.89,5.99,8.52,11.51,13.77,16.52,23.82-21.86,50.33-40.73,79.13-56,.31-2.93.47-5.91.51-8.9-33.39,11.14-65.55,26.92-94.53,46.58.37.6.74,1.21,1.13,1.81Z"/>
        <path class="cls-3" d="M56.87,155.53c2.56,1.52,5.19,2.96,7.91,4.28,8.05-3.98,15.39-8.77,21.85-14.28,6.86-5.85,12.76-12.52,17.53-19.84,4.73-7.25,8.36-15.16,10.8-23.49.13-.45.25-.91.37-1.36-21.36,16.14-40.96,34.48-58.47,54.68Z"/>
        <path class="cls-2" d="M5,13.38c0,3.84.58,47.28.58,62.19,0,38.08,21.41,72.43,59.22,89.82.08-.04.16-.08.25-.12,30.74-14.5,50.47-39.45,56.6-69.12.87-4.21,1.48-8.52,1.79-12.91.18-2.44.27-4.9.27-7.38v-.42c0-15.29.14-58.08.14-62.51-20.29-5.31-39.44-7.95-58.57-7.95S25.88,7.8,5,13.38ZM21.8,84.27c-.43-1.4-.87-2.73-1.29-3.99.49.3,1.01.62,1.55.95,1.61,1,3.37,2.11,4.87,3.15,1.52-.44,3.28-.94,4.91-1.36.54-.14,1.07-.27,1.57-.4-.61.91-1.29,1.99-2.01,3.12-.24.38-.48.76-.73,1.14,1.44,1.03,4.17,2.9,5.89,4.5-2.39-.46-5.96-1.04-7.93-1.35-.15.24-.3.49-.46.75-.05.08-.09.16-.14.24-.12.2-.23.39-.35.6-.05.08-.1.17-.15.25-.13.22-.25.44-.38.67-.04.07-.08.13-.11.2-.16.29-.33.59-.5.88-.44.79-.89,1.59-1.31,2.34-.2-.72-.41-1.47-.62-2.22h0c-.22-.79-.44-1.58-.66-2.33-.02-.06-.03-.11-.05-.17-.08-.29-.16-.57-.25-.84-.03-.09-.05-.17-.08-.26-.1-.32-.19-.63-.28-.92-.62-.1-1.3-.21-2.02-.31-2.14-.32-4.56-.64-6.59-.86,2.17-.73,5.35-1.73,7.52-2.37-.14-.49-.28-.96-.43-1.43ZM118.76,29.34c-.04,15.57-.1,36.89-.1,46.53,0,.42-.02.83-.02,1.24-.04,2.99-.2,5.96-.51,8.9-.53,5.06-1.48,10.01-2.8,14.83-.13.45-.24.91-.37,1.36-2.44,8.33-6.07,16.23-10.8,23.49-4.77,7.31-10.67,13.99-17.53,19.84-6.46,5.51-13.8,10.3-21.85,14.28-2.72-1.32-5.35-2.76-7.91-4.28-6.54-3.9-12.53-8.43-17.86-13.51-5.25-5-9.88-10.53-13.77-16.52-.39-.6-.75-1.2-1.13-1.81-3.35-5.44-6.1-11.2-8.22-17.19,29.7-15.71,61.71-27.6,95.41-35.03-2.27-.28-4.55-.54-6.84-.78-.34-.02-.69-.03-1.03-.04-2.14-.09-4.28-.16-6.42-.21-.57-.01-1.15-.03-1.72-.04-2.59-.05-5.19-.09-7.79-.09-26.32,0-52.02,2.67-76.84,7.76-.02-.83-.04-1.66-.04-2.49,0-.94,0-2,0-3.16-.04-11-.27-30.81-.42-44.36-.05-4.31-.09-8.11-.12-10.79,19.27-4.86,37.36-7.23,55.2-7.23s34.9,2.23,53.52,6.82c0,3.02-.02,7.43-.03,12.48ZM49.25,74.58c1.39.9,3.35,2.18,4.75,3.16,1.44-.31,3.11-.63,4.52-.89-.58.8-1.38,1.64-2.08,2.66,1.02.76,2.95,2.16,4.16,3.33-1.7-.41-4.22-.94-5.62-1.23-.74,1.1-1.63,2.64-2.43,3.96-.44-1.59-.94-3.42-1.34-4.72-1.77-.37-4.17-.89-6.08-1.19,1.65-.43,3.73-.85,5.34-1.21-.39-1.36-.82-2.68-1.22-3.87ZM72.03,71.99c.96.6,2.14,1.37,3.12,2.06.99-.15,2.2-.31,3.17-.42-.4.47-.86,1.07-1.35,1.66.7.51,1.91,1.38,2.74,2.15-1.17-.32-2.79-.69-3.75-.92-.51.64-1.13,1.56-1.68,2.34-.3-.99-.64-2.14-.91-2.95-1.21-.29-2.87-.66-4.19-.93,1.06-.2,2.62-.46,3.68-.62-.27-.85-.55-1.64-.81-2.38Z"/>
        <path class="cls-4" d="M73.36,75.92c.27.81.61,1.96.91,2.95.55-.78,1.17-1.7,1.68-2.34.96.23,2.58.6,3.75.92-.83-.76-2.04-1.64-2.74-2.15.48-.6.95-1.19,1.35-1.66-.97.11-2.18.27-3.17.42-.97-.68-2.16-1.45-3.12-2.06.27.74.55,1.53.81,2.38-1.06.16-2.61.42-3.68.62,1.32.26,2.98.63,4.19.93Z"/>
        <path class="cls-4" d="M51.21,80.85c.4,1.29.9,3.13,1.34,4.72.8-1.33,1.69-2.87,2.43-3.96,1.4.29,3.92.82,5.62,1.23-1.21-1.17-3.15-2.57-4.16-3.33.7-1.02,1.5-1.86,2.08-2.66-1.41.26-3.07.58-4.52.89-1.4-.98-3.36-2.26-4.75-3.16.4,1.19.82,2.51,1.22,3.87-1.61.36-3.69.78-5.34,1.21,1.92.31,4.32.82,6.08,1.19Z"/>
        <path class="cls-4" d="M21.3,88.93c.71.11,1.39.21,2.02.31.09.29.18.6.28.92.03.08.05.17.08.26.08.27.16.55.25.84.02.06.03.11.05.17.21.75.44,1.54.66,2.33h0c.21.75.42,1.5.62,2.22.42-.75.87-1.55,1.31-2.34.17-.3.33-.59.5-.88.04-.07.08-.13.11-.2.13-.23.26-.45.38-.67.05-.08.1-.17.15-.25.12-.2.24-.4.35-.6.05-.08.09-.16.14-.24.16-.26.31-.51.46-.75,1.97.31,5.53.89,7.93,1.35-1.72-1.6-4.45-3.48-5.89-4.5.25-.38.49-.76.73-1.14.72-1.13,1.39-2.21,2.01-3.12-.5.12-1.02.25-1.57.4-1.63.42-3.4.91-4.91,1.36-1.5-1.04-3.25-2.15-4.87-3.15-.54-.33-1.06-.65-1.55-.95.42,1.27.86,2.59,1.29,3.99.14.47.29.94.43,1.43-2.17.64-5.35,1.63-7.52,2.37,2.03.22,4.45.54,6.59.86Z"/>
        <path class="cls-2" d="M24.73,51.74c-.49.06-.98.13-1.46.2-3.77.52-5.21,2.02-5.21,5.31v3.72c0,3.28,1.44,4.33,5.21,3.81.49-.07.98-.13,1.46-.2,3.75-.49,5.49-1.91,5.49-5.1v-.31c-1.24.14-2.48.29-3.72.44v.32c0,1.41-.49,1.76-2.16,1.98-.15.02-.31.04-.46.06-1.85.25-2.44-.06-2.44-2.05v-2.64c0-2.02.56-2.49,2.34-2.73.17-.02.33-.04.5-.07,1.76-.23,2.23.11,2.23,1.28v.13c1.24-.16,2.48-.3,3.72-.44v-.36c0-2.85-1.84-3.83-5.49-3.36Z"/>
        <path class="cls-2" d="M38.55,55.58c-1.1-1.69-2.2-3.37-3.31-5.04-1.27.12-2.54.25-3.81.39,1.85,2.56,3.7,5.13,5.55,7.72v4.56c1.13-.1,2.26-.2,3.39-.29v-4.6c1.76-2.89,3.52-5.76,5.28-8.62-1.31.08-2.62.17-3.92.27-1.06,1.86-2.12,3.73-3.19,5.6Z"/>
        <path class="cls-2" d="M54.02,49.29c-.49.02-.98.04-1.47.06-3.79.16-5.38,1.53-5.38,4.83v3.72c0,3.28,1.59,4.46,5.38,4.3.49-.02.98-.04,1.47-.06,3.77-.13,5.38-1.39,5.38-4.57v-.3c-1.13.02-2.27.05-3.4.08v.32c0,1.41-.7,1.72-2.38,1.79-.16,0-.31.01-.47.02-1.86.07-2.59-.28-2.59-2.28v-2.64c0-2.02.7-2.44,2.48-2.51.17,0,.34-.01.5-.02,1.78-.07,2.45.31,2.45,1.48v.13c1.13-.03,2.27-.06,3.4-.08v-.37c0-2.85-1.71-4.01-5.38-3.88Z"/>
        <path class="cls-2" d="M65.86,49.09c-1.13,0-2.27,0-3.4.01v12.84c3.4-.03,6.8,0,10.2.08v-3.04c-2.27-.05-4.53-.08-6.8-.09v-9.8Z"/>
        <path class="cls-2" d="M75.38,62.1c1.13.04,2.27.08,3.4.13v-12.84c-1.13-.05-2.27-.09-3.4-.13v12.84Z"/>
        <path class="cls-2" d="M92.35,58.56c-2.03-2.94-4.07-5.86-6.11-8.76-1.24-.08-2.49-.16-3.73-.23v12.84c1.02.06,2.04.12,3.06.19v-8.43c2.05,2.94,4.09,5.91,6.13,8.89,1.23.11,2.47.22,3.7.34v-12.84c-1.02-.1-2.03-.19-3.05-.28v8.29Z"/>
        <path class="cls-2" d="M105.85,51.75c-.61-.08-1.23-.16-1.84-.24-3.77-.47-5.56.61-5.55,3.91,0,1.24,0,2.48,0,3.72,0,3.28,1.78,4.74,5.55,5.21.63.08,1.25.16,1.88.24,3.43.46,5.08-.38,5.35-2.92.04-.33.05-.66.05-1.05v-2.36c-2.02-.3-4.05-.59-6.08-.85v2.37c.9.12,1.8.24,2.7.36v.32c0,1.41-.71,1.61-2.38,1.39-.31-.04-.62-.08-.93-.12-1.85-.23-2.44-.7-2.44-2.69v-2.35c0-2.34.44-2.65,2.34-2.41.29.04.58.07.87.11,1.76.23,2.2.65,2.2,1.71v.28c1.24.17,2.47.35,3.71.53v-.54c0-2.69-1.85-4.15-5.45-4.62Z"/>
        <path class="cls-3" d="M45.54,33.96v-16.46c-2.35.22-4.7.47-7.05.77v15.67c0,4.71-1.86,5.82-5.29,6.33-.51.08-1.02.16-1.53.24-4.24.68-6.04-.62-6.04-4.55v-15.67c-2.33.44-4.65.91-6.97,1.43v16.46c0,6.63,3.74,8.6,12.2,7.19,1.05-.17,2.09-.33,3.14-.49,8.18-1.17,11.54-4.11,11.53-10.92Z"/>
        <path class="cls-3" d="M51.97,24.11c0,4.76,2.28,6.56,8.43,7.07,2.39.18,4.79.39,7.18.65,2.59.3,3.99.94,3.99,3.24,0,2.69-1.39,3.57-5.3,3.54-.72,0-1.43,0-2.15,0-3.01.01-6.08-.39-6.22-4.09-2.16.08-4.32.19-6.48.33.12,6.17,3.35,8.11,11.81,7.99,1.19-.01,2.38-.01,3.57,0,8.46.1,11.75-1.93,11.75-8.06,0-5.51-3.25-7.19-8.88-7.93-2.27-.29-4.55-.54-6.82-.76-3.14-.29-3.95-.82-3.95-2.69,0-2.44,1.81-2.93,6.15-2.95,4.21,0,5.75,1.05,5.83,3.77,2.16.06,4.32.15,6.48.27v-.45c0-5.49-2.83-7.66-11.25-7.73-.89,0-1.79,0-2.68,0-8.04.11-11.46,2.65-11.46,7.79Z"/>
        <path class="cls-3" d="M90.56,39.34c3.94.47,7.87,1.04,11.78,1.73.7,1.89,1.39,3.79,2.09,5.69,2.58.48,5.16,1,7.73,1.58-3.42-9.56-6.86-19.04-10.31-28.44-.02-.06-.03-.13-.05-.19-3.55-.61-7.12-1.13-10.69-1.56-3.5,8.44-7,16.97-10.51,25.58,2.62.19,5.25.42,7.86.71.7-1.7,1.4-3.39,2.1-5.08ZM96.18,24.12c.18.03.36.05.54.08,1.27,3.73,2.54,7.48,3.8,11.23-2.72-.45-5.46-.85-8.19-1.2,1.29-3.38,2.57-6.75,3.85-10.11Z"/>
      </g>
    </g>
  </g>
</svg>